:FULLY-SPECIFIED
:FORCE-ALL-JOINTS-BE-3DOF
:DEGREES
951
root 1.16961 15.2956 32.7476 6.80848 -3.08954 4.83518
lfemur 6.84106 0.908363 3.93132
ltibia 0.328693 -0 0
lfoot -28.4954 -14.6034 -0.00497635
ltoes -31.3372 0 0
rfemur -31.5407 -15.7077 -7.56902
rtibia 48.985 -0 0
rfoot -20.5253 4.29992 -0.00952525
rtoes -42.5416 0 0
lowerback -2.24615 -0.399191 0.645964
upperback -1.47139 -0.552767 -6.88801
thorax -0.333839 -0.317611 -7.56001
lowerneck -6.63282 0.479312 4.41579
upperneck 1.01333 0.183061 3.37574
head 1.43391 0.185665 0.31486
lclavicle -7.95685e-15 -2.7698e-14 -3.62999e-30
lhumerus -59.1007 -43.8988 112.736
lradius 55.5245 -0 0
lwrist 25.1529 0 0
lhand 40.1256 24.6821 -0.00114433
lfingers 7.12502 -0 0
lthumb 62.4941 35.5062 -0.00874126
rclavicle -7.95685e-15 -2.7698e-14 -3.62999e-30
rhumerus 3.42997 -34.8022 -2.3179
rradius 29.0764 -0 0
rwrist -16.0532 0 0
rhand -39.1554 -49.8573 0.0308065
rfingers 7.12502 -0 0
rthumb -12.1525 -79.4638 0.0266335
952
root 1.16148 15.285 32.7391 6.76686 -3.25417 4.79689
lfemur 6.97232 1.04106 4.01244
ltibia 0.307529 -0 0
lfoot -28.5935 -14.4591 -0.00645167
ltoes -31.461 0 0
rfemur -31.7291 -15.7646 -7.46345
rtibia 49.1695 -0 0
rfoot -20.6923 4.46222 -0.0123494
rtoes -42.4445 0 0
lowerback -2.20725 -0.407238 0.652561
upperback -1.44702 -0.563577 -6.84059
thorax -0.331358 -0.322482 -7.5126
lowerneck -6.60959 0.529907 4.50199
upperneck 0.954951 0.247437 3.37863
head 1.41185 0.21616 0.303077
lclavicle -5.73573e-15 -2.30474e-14 -4.70606e-30
lhumerus -59.0543 -43.8921 112.831
lradius 55.4757 -0 0
lwrist 25.1423 0 0
lhand 39.9639 24.7023 -0.00148358
lfingers 7.12502 -0 0
lthumb 62.3587 35.6899 -0.0113329
rclavicle -5.73573e-15 -2.30474e-14 -4.70606e-30
rhumerus 3.48171 -34.2482 -2.09332
rradius 29.038 -0 0
rwrist -15.8407 0 0
rhand -38.6965 -49.6664 0.0399419
rfingers 7.12502 -0 0
rthumb -11.7097 -79.2927 0.0345312
953
root 1.15249 15.2733 32.7297 6.72096 -3.43624 4.75468
lfemur 7.11769 1.18757 4.10249
ltibia 0.284127 -0 0
lfoot -28.7021 -14.2996 -0.00779519
ltoes -31.5979 0 0
rfemur -31.9375 -15.827 -7.34646
rtibia 49.3735 -0 0
rfoot -20.877 4.64169 -0.0149213
rtoes -42.3372 0 0
lowerback -2.16424 -0.416141 0.659848
upperback -1.42009 -0.575553 -6.78816
thorax -0.32862 -0.32787 -7.46018
lowerneck -6.58381 0.585807 4.59732
upperneck 0.890412 0.31862 3.38175
head 1.38746 0.249872 0.290035
lclavicle -3.2799e-15 -1.79053e-14 -5.68597e-30
lhumerus -59.0029 -43.8847 112.937
lradius 55.4217 -0 0
lwrist 25.1305 0 0
lhand 39.7852 24.7245 -0.00179253
lfingers 7.12502 -0 0
lthumb 62.2089 35.893 -0.0136931
rclavicle -3.2799e-15 -1.79053e-14 -5.68597e-30
rhumerus 3.54156 -33.6358 -1.84601
rradius 28.9956 -0 0
rwrist -15.6058 0 0
rhand -38.189 -49.4553 0.0482624
rfingers 7.12502 -0 0
rthumb -11.2201 -79.1035 0.0417243
954
root 1.14283 15.2607 32.7195 6.6718 -3.63188 4.70949
lfemur 7.27412 1.34471 4.19965
ltibia 0.258987 -0 0
lfoot -28.8187 -14.1282 -0.00890191
ltoes -31.7449 0 0
rfemur -32.1617 -15.8936 -7.22048
rtibia 49.5928 -0 0
rfoot -21.0753 4.83452 -0.0170399
rtoes -42.222 0 0
lowerback -2.11803 -0.425712 0.66767
upperback -1.39116 -0.588446 -6.73183
thorax -0.325683 -0.333661 -7.40387
lowerneck -6.55602 0.645815 4.69977
upperneck 0.821078 0.395098 3.38501
head 1.36125 0.286085 0.276007
lclavicle -6.41515e-16 -1.2381e-14 -6.49314e-30
lhumerus -58.9478 -43.8769 113.05
lradius 55.3637 -0 0
lwrist 25.1179 0 0
lhand 39.5932 24.7485 -0.00204702
lfingers 7.12502 -0 0
lthumb 62.048 36.1111 -0.0156373
rclavicle -6.41515e-16 -1.2381e-14 -6.49314e-30
rhumerus 3.60892 -32.978 -1.58133
rradius 28.95 -0 0
rwrist -15.3533 0 0
rhand -37.6438 -49.2283 0.0551172
rfingers 7.12502 -0 0
rthumb -10.694 -78.9002 0.0476502
955
root 1.13269 15.2475 32.7089 6.62035 -3.83723 4.66223
lfemur 7.43859 1.50934 4.30209
ltibia 0.232603 -0 0
lfoot -28.9411 -13.9484 -0.00968826
ltoes -31.8992 0 0
rfemur -32.3972 -15.963 -7.08793
rtibia 49.8228 -0 0
rfoot -21.2835 5.03688 -0.0185452
rtoes -42.101 0 0
lowerback -2.06955 -0.435763 0.67587
upperback -1.36082 -0.602007 -6.67274
thorax -0.322608 -0.339742 -7.34477
lowerneck -6.52673 0.708736 4.80731
upperneck 0.748322 0.47536 3.38833
head 1.33373 0.32408 0.261268
lclavicle 2.12727e-15 -6.58362e-15 -7.06664e-30
lhumerus -58.8899 -43.8688 113.168
lradius 55.3029 -0 0
lwrist 25.1047 0 0
lhand 39.3917 24.7736 -0.00222784
lfingers 7.12502 -0 0
lthumb 61.8792 36.3401 -0.0170188
rclavicle 2.12727e-15 -6.58362e-15 -7.06664e-30
rhumerus 3.68293 -32.2881 -1.30472
rradius 28.9022 -0 0
rwrist -15.0884 0 0
rhand -37.0715 -48.9901 0.0599882
rfingers 7.12502 -0 0
rthumb -10.1419 -78.6868 0.051861
956
root 1.12227 15.2339 32.698 6.56762 -4.04844 4.61382
lfemur 7.60803 1.67831 4.40792
ltibia 0.205475 -0 0
lfoot -29.0669 -13.7635 -0.0100963
ltoes -32.0579 0 0
rfemur -32.6396 -16.0338 -6.95128
rtibia 50.0593 -0 0
rfoot -21.4976 5.24497 -0.0193263
rtoes -41.9766 0 0
lowerback -2.01969 -0.446105 0.684293
upperback -1.32964 -0.615984 -6.61197
thorax -0.319452 -0.345998 -7.284
lowerneck -6.49649 0.773377 4.91793
upperneck 0.673513 0.557895 3.39164
head 1.30542 0.363141 0.246094
lclavicle 4.9743e-15 -6.22443e-16 -7.36421e-30
lhumerus -58.8303 -43.8605 113.291
lradius 55.2404 -0 0
lwrist 25.0911 0 0
lhand 39.1845 24.7994 -0.00232166
lfingers 7.12502 -0 0
lthumb 61.7055 36.5755 -0.0177356
rclavicle 4.9743e-15 -6.22443e-16 -7.36421e-30
rhumerus 3.76253 -31.579 -1.02135
rradius 28.8531 -0 0
rwrist -14.816 0 0
rhand -36.4831 -48.7452 0.0625158
rfingers 7.12502 -0 0
rthumb -9.57415 -78.4673 0.0540461
957
root 1.11175 15.2201 32.687 6.51457 -4.26162 4.56515
lfemur 7.77935 1.84852 4.51523
ltibia 0.178097 -0 0
lfoot -29.1939 -13.5768 -0.0100963
ltoes -32.2181 0 0
rfemur -32.8845 -16.1047 -6.81301
rtibia 50.2981 -0 0
rfoot -21.7137 5.45496 -0.0193263
rtoes -41.8511 0 0
lowerback -1.96938 -0.456548 0.692784
upperback -1.29819 -0.630123 -6.55066
thorax -0.316274 -0.352314 -7.22268
lowerneck -6.46585 0.838551 5.0296
upperneck 0.598023 0.64119 3.39487
head 1.27685 0.402553 0.230761
lclavicle 7.8474e-15 5.39334e-15 -7.36421e-30
lhumerus -58.7702 -43.8522 113.414
lradius 55.1772 -0 0
lwrist 25.0773 0 0
lhand 38.9754 24.8255 -0.00232166
lfingers 7.12502 -0 0
lthumb 61.5303 36.8132 -0.0177356
rclavicle 7.8474e-15 5.39334e-15 -7.36421e-30
rhumerus 3.84639 -30.8638 -0.736376
rradius 28.8034 -0 0
rwrist -14.5411 0 0
rhand -35.8892 -48.4979 0.0625158
rfingers 7.12502 -0 0
rthumb -9.0012 -78.2457 0.0540461
958
root 1.10133 15.2066 32.6761 6.46216 -4.47291 4.51711
lfemur 7.94945 2.01686 4.62209
ltibia 0.150969 -0 0
lfoot -29.3197 -13.3919 -0.00968826
ltoes -32.3768 0 0
rfemur -33.1275 -16.1743 -6.67564
rtibia 50.5346 -0 0
rfoot -21.9278 5.66305 -0.0185452
rtoes -41.7267 0 0
lowerback -1.91952 -0.466905 0.701188
upperback -1.26703 -0.644166 -6.48992
thorax -0.313131 -0.358577 -7.16191
lowerneck -6.43536 0.903075 5.14029
upperneck 0.523221 0.723733 3.39796
head 1.24852 0.441599 0.215547
lclavicle 1.06944e-14 1.13545e-14 -7.06664e-30
lhumerus -58.7106 -43.8442 113.536
lradius 55.1147 -0 0
lwrist 25.0637 0 0
lhand 38.7682 24.8513 -0.00222784
lfingers 7.12502 -0 0
lthumb 61.3566 37.0486 -0.0170188
rclavicle 1.06944e-14 1.13545e-14 -7.06664e-30
rhumerus 3.93295 -30.1554 -0.454844
rradius 28.7543 -0 0
rwrist -14.2687 0 0
rhand -35.3008 -48.253 0.0599882
rfingers 7.12502 -0 0
rthumb -8.43345 -78.0262 0.051861
